<svg xmlns="http://www.w3.org/2000/svg" viewBox="0 0 520 420" width="520" height="420" role="img" aria-label="">
  <defs><linearGradient id="g" x1="0" y1="0" x2="1" y2="1">
    <stop offset="0" stop-color="#ffe9f2"/><stop offset="1" stop-color="#d8f7f4"/></linearGradient></defs>
  <rect width="520" height="420" rx="28" fill="url(#g)"/>
  <ellipse cx="260" cy="330" rx="150" ry="22" fill="#191527" opacity=".07"/>
  <path d="M150 250c0-62 49-104 110-104s110 42 110 104c0 42-49 66-110 66s-110-24-110-66Z" fill="#ff5fa2"/>
  <path d="M150 226c-26-16-44-8-56 6 16 4 30 14 40 30M370 226c26-16 44-8 56 6-16 4-30 14-40 30" fill="#ff8fbe"/>
  <circle cx="218" cy="228" r="15" fill="#fff"/><circle cx="302" cy="228" r="15" fill="#fff"/>
  <circle cx="222" cy="232" r="7" fill="#191527"/><circle cx="306" cy="232" r="7" fill="#191527"/>
  <path d="M240 272q20 18 40 0" stroke="#191527" stroke-width="6" fill="none" stroke-linecap="round"/>
  <circle cx="196" cy="262" r="11" fill="#ffb9d5"/><circle cx="324" cy="262" r="11" fill="#ffb9d5"/>
</svg>
